<?xml version="1.0" encoding="UTF-8" standalone="no"?>
<!DOCTYPE svg PUBLIC "-//W3C//DTD SVG 1.1//EN"
 "http://www.w3.org/Graphics/SVG/1.1/DTD/svg11.dtd">
<!-- Generated by graphviz version 6.0.2 (20221011.1828)
 -->
<!-- Title: D Pages: 1 -->
<svg width="504pt" height="515pt"
 viewBox="0.00 0.00 504.06 515.00" xmlns="http://www.w3.org/2000/svg" xmlns:xlink="http://www.w3.org/1999/xlink">
<g id="graph0" class="graph" transform="scale(1 1) rotate(0) translate(4 511)">
<title>D</title>
<polygon fill="white" stroke="none" points="-4,4 -4,-511 500.06,-511 500.06,4 -4,4"/>
<g id="clust1" class="cluster">
<title>cluster_RequestProcessor</title>
<polygon fill="none" stroke="black" points="8,-131 8,-392 238,-392 238,-131 8,-131"/>
<text text-anchor="middle" x="123" y="-376.8" font-family="Times New Roman,serif" font-size="14.00">Request Processor</text>
</g>
<g id="clust2" class="cluster">
<title>cluster_rp_py</title>
<polygon fill="none" stroke="black" points="16,-139 16,-361 230,-361 230,-139 16,-139"/>
<text text-anchor="middle" x="123" y="-345.8" font-family="Times New Roman,serif" font-size="14.00">rp.py</text>
</g>
<g id="clust3" class="cluster">
<title>cluster_rabbitMq</title>
<polygon fill="none" stroke="black" points="171,-8 171,-123 341,-123 341,-8 171,-8"/>
<text text-anchor="middle" x="256" y="-107.8" font-family="Times New Roman,serif" font-size="14.00">Rabbit MQ</text>
</g>
<g id="clust4" class="cluster">
<title>cluster_queues</title>
<polygon fill="none" stroke="black" points="179,-16 179,-92 333,-92 333,-16 179,-16"/>
<text text-anchor="middle" x="256" y="-76.8" font-family="Times New Roman,serif" font-size="14.00">queues</text>
</g>
<g id="clust5" class="cluster">
<title>cluster_dataCollector</title>
<polygon fill="none" stroke="black" points="248,-131 248,-499 460,-499 460,-131 248,-131"/>
<text text-anchor="middle" x="354" y="-483.8" font-family="Times New Roman,serif" font-size="14.00">Data Collector</text>
</g>
<g id="clust6" class="cluster">
<title>cluster_queues</title>
<polygon fill="none" stroke="black" points="256,-139 256,-468 452,-468 452,-139 256,-139"/>
<text text-anchor="middle" x="354" y="-452.8" font-family="Times New Roman,serif" font-size="14.00">dc (c++ pogram)</text>
</g>
<!-- receive from &#39;request&#39; queue -->
<g id="node1" class="node">
<title>receive from &#39;request&#39; queue</title>
<polygon fill="none" stroke="black" points="24.5,-293.5 24.5,-329.5 221.5,-329.5 221.5,-293.5 24.5,-293.5"/>
<text text-anchor="middle" x="123" y="-307.8" font-family="Arial" font-size="14.00">receive from &#39;request&#39; queue</text>
</g>
<!-- process request -->
<g id="node2" class="node">
<title>process request</title>
<polygon fill="none" stroke="black" points="62,-220.5 62,-256.5 182,-256.5 182,-220.5 62,-220.5"/>
<text text-anchor="middle" x="122" y="-234.8" font-family="Arial" font-size="14.00">process request</text>
</g>
<!-- receive from &#39;request&#39; queue&#45;&gt;process request -->
<g id="edge1" class="edge">
<title>receive from &#39;request&#39; queue&#45;&gt;process request</title>
<path fill="none" stroke="black" d="M122.76,-293.31C122.64,-285.29 122.51,-275.55 122.38,-266.57"/>
<polygon fill="black" stroke="black" points="125.88,-266.48 122.24,-256.53 118.88,-266.58 125.88,-266.48"/>
</g>
<!-- publish to &#39;reply&#39; queue -->
<g id="node3" class="node">
<title>publish to &#39;reply&#39; queue</title>
<polygon fill="none" stroke="black" points="40.5,-147.5 40.5,-183.5 201.5,-183.5 201.5,-147.5 40.5,-147.5"/>
<text text-anchor="middle" x="121" y="-161.8" font-family="Arial" font-size="14.00">publish to &#39;reply&#39; queue</text>
</g>
<!-- process request&#45;&gt;publish to &#39;reply&#39; queue -->
<g id="edge2" class="edge">
<title>process request&#45;&gt;publish to &#39;reply&#39; queue</title>
<path fill="none" stroke="black" d="M121.76,-220.31C121.64,-212.29 121.51,-202.55 121.38,-193.57"/>
<polygon fill="black" stroke="black" points="124.88,-193.48 121.24,-183.53 117.88,-193.58 124.88,-193.48"/>
</g>
<!-- reply -->
<g id="node5" class="node">
<title>reply</title>
<polygon fill="none" stroke="black" points="187,-24.5 187,-60.5 241,-60.5 241,-24.5 187,-24.5"/>
<text text-anchor="middle" x="214" y="-38.8" font-family="Arial" font-size="14.00">reply</text>
</g>
<!-- publish to &#39;reply&#39; queue&#45;&gt;reply -->
<g id="edge4" class="edge">
<title>publish to &#39;reply&#39; queue&#45;&gt;reply</title>
<path fill="none" stroke="black" d="M134.13,-147.42C149.82,-127 176.24,-92.62 194.37,-69.04"/>
<polygon fill="black" stroke="black" points="197.32,-70.95 200.64,-60.88 191.77,-66.68 197.32,-70.95"/>
</g>
<!-- request -->
<g id="node4" class="node">
<title>request</title>
<polygon fill="none" stroke="black" points="259.5,-24.5 259.5,-60.5 324.5,-60.5 324.5,-24.5 259.5,-24.5"/>
<text text-anchor="middle" x="292" y="-38.8" font-family="Arial" font-size="14.00">request</text>
</g>
<!-- request&#45;&gt;receive from &#39;request&#39; queue -->
<g id="edge3" class="edge">
<title>request&#45;&gt;receive from &#39;request&#39; queue</title>
<path fill="none" stroke="black" d="M284.2,-60.54C261.68,-109.65 197.73,-248.56 191,-257 181.88,-268.44 169.86,-278.91 158.47,-287.5"/>
<polygon fill="black" stroke="black" points="156.37,-284.71 150.33,-293.41 160.48,-290.37 156.37,-284.71"/>
</g>
<!-- receive from &#39;reply&#39; queue -->
<g id="node6" class="node">
<title>receive from &#39;reply&#39; queue</title>
<polygon fill="none" stroke="black" points="264,-400.5 264,-436.5 444,-436.5 444,-400.5 264,-400.5"/>
<text text-anchor="middle" x="354" y="-414.8" font-family="Arial" font-size="14.00">receive from &#39;reply&#39; queue</text>
</g>
<!-- reply&#45;&gt;receive from &#39;reply&#39; queue -->
<g id="edge8" class="edge">
<title>reply&#45;&gt;receive from &#39;reply&#39; queue</title>
<path fill="none" stroke="black" d="M216.42,-60.52C220.09,-79.34 229.01,-108.87 250,-123 268.73,-135.61 437.36,-114.73 453,-131 534.24,-215.51 488.51,-300.69 415,-392 414.61,-392.49 414.2,-392.97 413.79,-393.44"/>
<polygon fill="black" stroke="black" points="411.29,-390.97 406.26,-400.3 416.01,-396.15 411.29,-390.97"/>
</g>
<!-- process reply -->
<g id="node7" class="node">
<title>process reply</title>
<polygon fill="none" stroke="black" points="302.5,-293.5 302.5,-329.5 405.5,-329.5 405.5,-293.5 302.5,-293.5"/>
<text text-anchor="middle" x="354" y="-307.8" font-family="Arial" font-size="14.00">process reply</text>
</g>
<!-- receive from &#39;reply&#39; queue&#45;&gt;process reply -->
<g id="edge5" class="edge">
<title>receive from &#39;reply&#39; queue&#45;&gt;process reply</title>
<path fill="none" stroke="black" d="M354,-400.16C354,-383.72 354,-358.78 354,-339.69"/>
<polygon fill="black" stroke="black" points="357.5,-339.52 354,-329.52 350.5,-339.52 357.5,-339.52"/>
</g>
<!-- create request -->
<g id="node8" class="node">
<title>create request</title>
<polygon fill="none" stroke="black" points="300,-220.5 300,-256.5 408,-256.5 408,-220.5 300,-220.5"/>
<text text-anchor="middle" x="354" y="-234.8" font-family="Arial" font-size="14.00">create request</text>
</g>
<!-- process reply&#45;&gt;create request -->
<g id="edge6" class="edge">
<title>process reply&#45;&gt;create request</title>
<path fill="none" stroke="black" d="M354,-293.31C354,-285.29 354,-275.55 354,-266.57"/>
<polygon fill="black" stroke="black" points="357.5,-266.53 354,-256.53 350.5,-266.53 357.5,-266.53"/>
</g>
<!-- publish to &#39;request&#39; queue -->
<g id="node9" class="node">
<title>publish to &#39;request&#39; queue</title>
<polygon fill="none" stroke="black" points="264.5,-147.5 264.5,-183.5 443.5,-183.5 443.5,-147.5 264.5,-147.5"/>
<text text-anchor="middle" x="354" y="-161.8" font-family="Arial" font-size="14.00">publish to &#39;request&#39; queue</text>
</g>
<!-- create request&#45;&gt;publish to &#39;request&#39; queue -->
<g id="edge7" class="edge">
<title>create request&#45;&gt;publish to &#39;request&#39; queue</title>
<path fill="none" stroke="black" d="M354,-220.31C354,-212.29 354,-202.55 354,-193.57"/>
<polygon fill="black" stroke="black" points="357.5,-193.53 354,-183.53 350.5,-193.53 357.5,-193.53"/>
</g>
<!-- publish to &#39;request&#39; queue&#45;&gt;request -->
<g id="edge9" class="edge">
<title>publish to &#39;request&#39; queue&#45;&gt;request</title>
<path fill="none" stroke="black" d="M345.25,-147.42C334.92,-127.27 317.63,-93.53 305.57,-69.98"/>
<polygon fill="black" stroke="black" points="308.58,-68.19 300.91,-60.88 302.35,-71.38 308.58,-68.19"/>
</g>
</g>
</svg>
